#!OML:ASF H:\Punching\Project 1\Capture day 1\Session 1\female.ASF
:FULLY-SPECIFIED
:DEGREES
48
root -0.296911 14.9057 -1.8382 9.36235 0.312757 0.450763
lowerback 2.73383 -2.17723 -0.943193
upperback -6.32976 -2.97126 0.399152
thorax -8.09287 -1.39022 1.23379
lowerneck -10.9461 -9.28937 -4.41025
upperneck 26.0415 -12.1605 -0.621822
head 10.3552 -6.13107 -0.977731
rclavicle -3.67198e-014 -7.98245e-016
rhumerus 35.6203 10.4304 -62.294
rradius 65.7986
rwrist -0.423486
rhand 33.9042 -37.7867
rfingers 7.12502
rthumb 57.1786 -54.2229
lclavicle -3.67198e-014 -7.98245e-016
lhumerus 27.4216 -5.31286 57.0767
lradius 79.8421
lwrist -10.1557
lhand 36.5235 26.9408
lfingers 7.12502
lthumb 59.4563 41.2795
rfemur -29.1073 -7.14359 16.5161
rtibia 52.1949
rfoot -28.9706 -8.38985
rtoes -12.1697
lfemur -29.5692 1.84064 -17.2208
ltibia 50.3128
lfoot -25.0335 7.75427
ltoes -13.3664
49
root -0.297725 14.9062 -1.8334 9.35293 0.28721 0.448283
lowerback 2.72445 -2.16911 -0.953737
upperback -6.32265 -2.96205 0.38279
thorax -8.08023 -1.38581 1.22099
lowerneck -11.007 -9.26044 -4.37318
upperneck 26.1029 -12.1243 -0.63184
head 10.3851 -6.11072 -0.987791
rclavicle -4.40326e-016 6.76023e-015
rhumerus 35.5742 10.4136 -62.3051
rradius 65.806
rwrist -0.480332
rhand 33.894 -37.741
rfingers 7.12502
rthumb 57.1696 -54.1849
lclavicle -4.40326e-016 6.76023e-015
lhumerus 27.3968 -5.28827 57.0679
lradius 79.8773
lwrist -10.0887
lhand 36.4913 26.9599
lfingers 7.12502
lthumb 59.4285 41.3265
rfemur -29.0898 -7.15899 16.5206
rtibia 52.2031
rfoot -28.9795 -8.34939
rtoes -12.1895
lfemur -29.5306 1.83103 -17.2136
ltibia 50.3117
lfoot -25.0404 7.78243
ltoes -13.4224
50
root -0.29915 14.9048 -1.83011 9.33451 0.2709 0.422814
lowerback 2.74187 -2.18045 -0.956936
upperback -6.31774 -2.97668 0.397504
thorax -8.08382 -1.39223 1.24023
lowerneck -11.0469 -9.21761 -4.38701
upperneck 26.147 -12.0604 -0.631532
head 10.4087 -6.08168 -0.981275
rclavicle -5.97611e-015 1.19224e-014
rhumerus 35.5781 10.4578 -62.3188
rradius 65.8026
rwrist -0.520904
rhand 33.9253 -37.811
rfingers 7.12502
rthumb 57.1971 -54.2317
lclavicle -5.97611e-015 1.19224e-014
lhumerus 27.3351 -5.23488 57.0494
lradius 79.9166
lwrist -10.0036
lhand 36.3977 26.9938
lfingers 7.12502
lthumb 59.348 41.4408
rfemur -29.0646 -7.16938 16.5569
rtibia 52.2061
rfoot -28.9999 -8.33366
rtoes -12.1775
lfemur -29.4985 1.83887 -17.176
ltibia 50.3196
lfoot -25.0519 7.79105
ltoes -13.4232
51
root -0.299851 14.9055 -1.82496 9.31104 0.269867 0.437986
lowerback 2.73782 -2.17375 -0.975194
upperback -6.29938 -2.9706 0.369695
thorax -8.06226 -1.3894 1.21992
lowerneck -11.1569 -9.18645 -4.31225
upperneck 26.258 -12.0177 -0.683016
head 10.4605 -6.05839 -1.01488
rclavicle 9.00704e-015 3.7707e-015
rhumerus 35.5378 10.4174 -62.3415
rradius 65.8089
rwrist -0.544503
rhand 33.9034 -37.8565
rfingers 7.12502
rthumb 57.1779 -54.2933
lclavicle 9.00704e-015 3.7707e-015
lhumerus 27.3464 -5.24315 57.0347
lradius 79.9361
lwrist -9.96485
lhand 36.377 27.0509
lfingers 7.12502
lthumb 59.3301 41.5157
rfemur -29.0127 -7.2125 16.5387
rtibia 52.1986
rfoot -29.0187 -8.28786
rtoes -12.1776
lfemur -29.4472 1.82024 -17.1879
ltibia 50.3199
lfoot -25.0571 7.79174
ltoes -13.4133
52
root -0.300957 14.9053 -1.82061 9.28939 0.252612 0.44119
lowerback 2.74696 -2.16897 -0.999919
upperback -6.30582 -2.96659 0.361876
thorax -8.07391 -1.38598 1.22573
lowerneck -11.1462 -9.15175 -4.31208
upperneck 26.3255 -11.9723 -0.681205
head 10.4826 -6.037 -1.01029
rclavicle 7.04598e-015 -1.20513e-015
rhumerus 35.4781 10.433 -62.3513
rradius 65.8034
rwrist -0.52208
rhand 33.8813 -37.8027
rfingers 7.12502
rthumb 57.1585 -54.2559
lclavicle 7.04598e-015 -1.20513e-015
lhumerus 27.3001 -5.25584 57.0406
lradius 79.9385
lwrist -9.97455
lhand 36.3841 27.0801
lfingers 7.12502
lthumb 59.3362 41.5389
rfemur -28.9728 -7.20959 16.537
rtibia 52.196
rfoot -29.0029 -8.30016
rtoes -12.2812
lfemur -29.403 1.80704 -17.1824
ltibia 50.3382
lfoot -25.0768 7.81287
ltoes -13.4632
53
root -0.301178 14.9054 -1.81503 9.2022 0.290816 0.420006
lowerback 2.88382 -2.13126 -0.981954
upperback -6.26325 -2.91833 0.32415
thorax -8.11208 -1.36408 1.17651
lowerneck -11.8792 -9.21459 -3.98316
upperneck 26.8581 -12.0285 -1.03255
head 10.7729 -6.05641 -1.25002
rclavicle 4.47809e-015 8.89561e-015
rhumerus 35.3402 10.284 -62.2472
rradius 65.8794
rwrist -0.582263
rhand 33.9748 -37.0992
rfingers 7.12502
rthumb 57.2406 -53.483
lclavicle 4.47809e-015 8.89561e-015
lhumerus 27.4521 -5.35983 57.0366
lradius 79.9864
lwrist -9.91531
lhand 35.7586 27.5269
lfingers 7.12502
lthumb 58.796 42.5119
rfemur -28.8359 -7.26676 16.5548
rtibia 52.1883
rfoot -29.0397 -8.26432
rtoes -12.2204
lfemur -29.2946 1.75035 -17.1462
ltibia 50.3534
lfoot -25.0868 7.82598
ltoes -13.502
54
root -0.303751 14.904 -1.81211 9.27311 0.210458 0.368589
lowerback 2.72276 -2.14969 -0.956754
upperback -6.28831 -2.93819 0.348194
thorax -8.04425 -1.37565 1.18305
lowerneck -11.3318 -9.04438 -4.1869
upperneck 26.5899 -11.8286 -0.756957
head 10.5986 -5.96296 -1.05662
rclavicle -1.48382e-014 -7.37988e-015
rhumerus 35.4007 10.4202 -62.3754
rradius 65.7725
rwrist -0.519205
rhand 33.8577 -37.7707
rfingers 7.12502
rthumb 57.1378 -54.2414
lclavicle -1.48382e-014 -7.37988e-015
lhumerus 27.2922 -5.27949 57.0197
lradius 79.9528
lwrist -9.95237
lhand 36.5137 27.1847
lfingers 7.12502
lthumb 59.4478 41.532
rfemur -28.9369 -7.20088 16.6286
rtibia 52.2012
rfoot -29.0252 -8.2507
rtoes -12.1574
lfemur -29.3756 1.83655 -17.0838
ltibia 50.3993
lfoot -25.096 7.81006
ltoes -13.5659
55
root -0.304242 14.903 -1.80784 9.26362 0.205148 0.37083
lowerback 2.68974 -2.15055 -0.971053
upperback -6.26832 -2.94029 0.33994
thorax -8.00289 -1.3767 1.18046
lowerneck -11.4128 -8.99391 -4.17198
upperneck 26.7213 -11.7577 -0.771128
head 10.6597 -5.92826 -1.06386
rclavicle -1.06769e-014 -1.2921e-015
rhumerus 35.4023 10.4229 -62.3779
rradius 65.7291
rwrist -0.560569
rhand 33.9444 -37.8264
rfingers 7.12502
rthumb 57.2139 -54.2329
lclavicle -1.06769e-014 -1.2921e-015
lhumerus 27.2549 -5.28026 57.0192
lradius 79.8939
lwrist -9.98062
lhand 36.5165 27.1164
lfingers 7.12502
lthumb 59.4502 41.4612
rfemur -28.9193 -7.25186 16.6366
rtibia 52.2187
rfoot -29.0368 -8.23416
rtoes -12.2192
lfemur -29.36 1.80653 -17.0808
ltibia 50.4385
lfoot -25.1048 7.83893
ltoes -13.5938
56
root -0.306329 14.9021 -1.80486 9.2701 0.204021 0.337192
lowerback 2.68842 -2.15459 -0.965393
upperback -6.27678 -2.94476 0.349477
thorax -8.01096 -1.37879 1.18791
lowerneck -11.4968 -8.92156 -4.12728
upperneck 26.8988 -11.6544 -0.820678
head 10.7334 -5.87975 -1.08536
rclavicle 3.43183e-014 1.66482e-015
rhumerus 35.3602 10.4616 -62.3653
rradius 65.7214
rwrist -0.60813
rhand 33.9409 -37.8069
rfingers 7.12502
rthumb 57.2108 -54.2159
lclavicle 3.43183e-014 1.66482e-015
lhumerus 27.1993 -5.29742 57.0006
lradius 79.8878
lwrist -9.92331
lhand 36.5558 27.185
lfingers 7.12502
lthumb 59.484 41.4958
rfemur -28.9445 -7.25772 16.6943
rtibia 52.2525
rfoot -29.0139 -8.27536
rtoes -12.335
lfemur -29.3898 1.82291 -17.0346
ltibia 50.4959
lfoot -25.1029 7.85575
ltoes -13.7271
57
root -0.30664 14.9007 -1.80036 9.2627 0.195386 0.337638
lowerback 2.69093 -2.15181 -0.980074
upperback -6.29366 -2.94234 0.347926
thorax -8.03015 -1.37646 1.19485
lowerneck -11.5621 -8.83553 -4.08987
upperneck 27.094 -11.5319 -0.868113
head 10.8109 -5.82316 -1.10209
rclavicle -1.0343e-015 -1.20513e-014
rhumerus 35.2956 10.505 -62.3523
rradius 65.7011
rwrist -0.683388
rhand 33.8775 -37.8073
rfingers 7.12502
rthumb 57.1551 -54.2633
lclavicle -1.0343e-015 -1.20513e-014
lhumerus 27.1412 -5.33525 57.0102
lradius 79.8717
lwrist -9.92667
lhand 36.5835 27.2007
lfingers 7.12502
lthumb 59.5079 41.4875
rfemur -28.9312 -7.29497 16.6955
rtibia 52.2825
rfoot -29.038 -8.2451
rtoes -12.2915
lfemur -29.3743 1.8159 -17.0315
ltibia 50.5395
lfoot -25.143 7.85029
ltoes -13.7014
58
root -0.308757 14.8984 -1.79793 9.26768 0.17784 0.322523
lowerback 2.66489 -2.13702 -0.988748
upperback -6.28727 -2.92337 0.337442
thorax -8.00854 -1.36727 1.18555
lowerneck -11.6741 -8.75334 -4.00645
upperneck 27.3069 -11.4214 -0.923613
head 10.9008 -5.76757 -1.1334
rclavicle -2.49723e-015 -7.77745e-015
rhumerus 35.2625 10.491 -62.3594
rradius 65.6576
rwrist -0.730449
rhand 33.9947 -37.8343
rfingers 7.12502
rthumb 57.2581 -54.2032
lclavicle -2.49723e-015 -7.77745e-015
lhumerus 27.1283 -5.38901 56.9969
lradius 79.8419
lwrist -9.94622
lhand 36.5704 27.1844
lfingers 7.12502
lthumb 59.4966 41.4825
rfemur -28.9573 -7.28736 16.7315
rtibia 52.3128
rfoot -29.0337 -8.28482
rtoes -12.3307
lfemur -29.393 1.82427 -17.003
ltibia 50.5881
lfoot -25.1583 7.83594
ltoes -13.6348
59
root -0.309484 14.8983 -1.79368 9.26607 0.165751 0.306316
lowerback 2.64555 -2.12832 -0.981945
upperback -6.28321 -2.91113 0.334536
thorax -7.99357 -1.36198 1.17659
lowerneck -11.8389 -8.6435 -3.92602
upperneck 27.578 -11.2671 -0.991361
head 11.0224 -5.69255 -1.16775
rclavicle 7.45132e-015 -9.74045e-015
rhumerus 35.2283 10.501 -62.3508
rradius 65.6268
rwrist -0.779766
rhand 33.9462 -37.7991
rfingers 7.12502
rthumb 57.2155 -54.2042
lclavicle 7.45132e-015 -9.74045e-015
lhumerus 27.0961 -5.43217 56.9985
lradius 79.8163
lwrist -9.93911
lhand 36.5687 27.1992
lfingers 7.12502
lthumb 59.4951 41.4988
rfemur -28.9461 -7.29782 16.7554
rtibia 52.3343
rfoot -29.0356 -8.27111
rtoes -12.2818
lfemur -29.3869 1.82268 -16.9816
ltibia 50.6266
lfoot -25.175 7.8482
ltoes -13.7243
60
root -0.311124 14.8981 -1.79119 9.26578 0.163354 0.273925
lowerback 2.64503 -2.12824 -0.975829
upperback -6.27735 -2.91003 0.341919
thorax -7.98685 -1.36166 1.18062
lowerneck -12.0355 -8.51337 -3.81585
upperneck 27.8861 -11.0871 -1.07236
head 11.1619 -5.60373 -1.21085
rclavicle 1.36432e-014 -8.19987e-015
rhumerus 35.2011 10.5239 -62.3517
rradius 65.6112
rwrist -0.847144
rhand 33.9369 -37.8499
rfingers 7.12502
rthumb 57.2073 -54.2619
lclavicle 1.36432e-014 -8.19987e-015
lhumerus 27.1252 -5.45306 56.9824
lradius 79.8023
lwrist -9.95552
lhand 36.6085 27.2556
lfingers 7.12502
lthumb 59.5293 41.5207
rfemur -28.9466 -7.2838 16.8071
rtibia 52.3528
rfoot -29.0318 -8.31239
rtoes -12.2335
lfemur -29.3936 1.82445 -16.9363
ltibia 50.6639
lfoot -25.1822 7.85691
ltoes -13.7996
61
root -0.312611 14.8968 -1.78819 9.26342 0.140297 0.25509
lowerback 2.63129 -2.11004 -0.972989
upperback -6.27748 -2.88584 0.332322
thorax -7.98014 -1.35036 1.16613
lowerneck -12.1762 -8.3545 -3.68401
upperneck 28.1963 -10.8768 -1.14033
head 11.2913 -5.49831 -1.24558
rclavicle 1.4797e-014 3.52843e-015
rhumerus 35.1547 10.5197 -62.3614
rradius 65.5602
rwrist -0.91402
rhand 33.9708 -37.8726
rfingers 7.12502
rthumb 57.237 -54.2594
lclavicle 1.4797e-014 3.52843e-015
lhumerus 27.1206 -5.52032 56.9866
lradius 79.7507
lwrist -9.95179
lhand 36.6384 27.2242
lfingers 7.12502
lthumb 59.555 41.4633
rfemur -28.9572 -7.26365 16.84
rtibia 52.3688
rfoot -29.0332 -8.34045
rtoes -12.2473
lfemur -29.3876 1.83567 -16.9103
ltibia 50.692
lfoot -25.186 7.89197
ltoes -13.8831
